<?xml version="1.0" encoding="utf-8"?>
<!-- Generator: Adobe Illustrator 24.2.3, SVG Export Plug-In . SVG Version: 6.00 Build 0)  -->
<svg version="1.1" id="Layer_1" xmlns="http://www.w3.org/2000/svg" xmlns:xlink="http://www.w3.org/1999/xlink" x="0px" y="0px"
	 viewBox="0 0 376.647 358.71" enable-background="new 0 0 376.647 358.71" xml:space="preserve">
<g>
	<g>
		<path fill="#27AAE1" d="M309.92,43.101c-12.306-10.598-26.079-19.497-40.811-26.346C239.57,2.821,206.183-2.437,173.754,1.037
			C125.319,6.043,79.598,32.099,50.417,71.042c-26.767,34.977-39.889,80.183-35.548,124.053c28.84,0.347,57.698,0.144,86.544,0.159
			c6.49,22.567,12.905,45.164,19.801,67.607c10.937-0.63,21.915,0.173,32.858-0.455c11.007-31.149,22.038-62.297,33.105-93.424
			c-5.128-13.784-10.285-27.552-15.413-41.328c-4.523,12.518-9.057,25.024-13.492,37.57c-3.172,7.239-5.058,14.94-7.982,22.272
			c-2.661,6.588-4.764,13.378-7.137,20.066c-1.803,0-3.6-0.006-5.392-0.043c-2.079-7.794-4.805-15.423-6.508-23.325
			c-3.812-10.714-6.549-21.81-9.786-32.717c-4.364-14.389-8.505-28.845-12.781-43.256c-10.855,0.007-21.715,0-32.57,0.007
			c5.04,18.356,10.714,36.523,15.771,54.871c-15.019,0.123-30.038-0.144-45.052,0.21c3.982-41.955,27.807-81.15,62.309-105.105
			c20.106-14.107,43.83-23,68.248-25.651c17.545-1.885,35.448-0.636,52.529,3.828c25.422,6.574,49.081,20.038,67.472,38.798
			c7.554-7.679,15.501-14.981,22.726-22.979C316.698,49.183,313.391,46.048,309.92,43.101z"/>
		<path fill="#808285" d="M177.907,108.273c9.856-0.68,19.712-0.253,29.574-0.166c7.566,20.291,14.743,40.735,22.526,60.946
			c4.429,12.966,9.463,25.716,13.997,38.639c1.609-0.087,3.231-0.217,4.846-0.376c9.615-33.077,19.166-66.176,28.834-99.239
			c11.048-0.426,22.109-0.116,33.163-0.21c-5.222,18.45-10.708,36.827-15.988,55.255c25.727,0.015,51.443,0,77.158,0.007
			c2.996,31.928-2.931,64.616-16.793,93.525c-21.486,45.155-62.632,80.48-110.639,94.589c-33.68,10.074-70.344,9.968-103.936-0.399
			c-28-8.482-53.581-24.247-74.397-44.714c7.319-7.909,15.213-15.251,22.732-22.963c5.598,5.116,11.143,10.332,17.345,14.728
			c23.248,17.049,51.566,27.234,80.4,28.344c28.347,1.41,56.958-5.927,81.381-20.323c20.218-12,37.563-28.846,49.962-48.849
			c11.607-18.608,19.107-39.78,21.639-61.582c-18.015-0.476-36.053-0.072-54.074-0.208c-6.82,22.364-13.134,44.887-19.689,67.34
			c-10.672-0.081-21.363,0.273-32.029-0.195c-9.792-27.321-19.889-54.539-29.68-81.86c-2.99-6.711-5.181-13.726-7.565-20.659
			C190.313,142.73,183.875,125.588,177.907,108.273z"/>
	</g>
	<path fill="#808285" d="M337.245,156.024c-1.838-0.371-3.689-0.702-5.533-1.059c-0.499-6.305-0.998-12.611-1.486-18.913
		c1.98-1.167,4.018-2.376,5.498-4.165c0.558-0.654,0.717-1.512,0.852-2.336c3.007-15.764,6.026-31.522,9.04-47.286
		c-2.896-0.769-5.838-1.722-8.176-3.662c-1.245-1.048-2.332-2.523-2.326-4.22c0.094-1.351,0.276-2.702,0.394-4.054
		c0.047-0.435,0.041-0.959,0.481-1.213c1.333-0.994,3.066-1.32,4.335-2.428c0.447-0.379,0.617-1.034,0.347-1.565
		c-0.934-1.966-2.896-3.247-3.736-5.276c-0.17-0.358-0.147-0.764-0.112-1.147c1.257-10.307,2.678-20.594,4.605-30.801
		c0.934-4.68,1.921-9.375,3.548-13.868c0.722-1.72,1.392-3.742,3.219-4.586c3.683-1.755,7.924-1.711,11.894-1.244
		c4.358,0.615,8.723,1.805,12.493,4.137c1.786,1.195,3.812,2.712,3.959,5.045c0.405,4.615-0.429,9.222-1.134,13.768
		c-1.979,11.175-4.711,22.197-7.565,33.177c-0.129,0.498-0.27,1.032-0.675,1.383c-1.521,1.498-3.73,1.974-5.304,3.397
		c-0.376,0.323-0.576,0.862-0.411,1.341c0.664,1.853,2.731,2.784,3.413,4.611c-0.235,1.335-0.728,2.623-1.051,3.943
		c-0.364,1.603-1.844,2.646-3.26,3.292c-2.943,1.283-6.238,1.198-9.375,0.966c-3.049,16.078-6.15,32.148-9.216,48.221
		c-0.217,1.066,0.217,2.113,0.675,3.048c0.793,1.61,1.88,3.049,2.984,4.454C342.843,144.672,340.076,150.366,337.245,156.024z"/>
	<g>
		<path fill="#27AAE1" stroke="#FFFFFF" stroke-width="1.5273" stroke-miterlimit="10" d="M54.001,282.506
			c0.221,0.734,0.455,1.466,0.673,2.201c-1.01,0.308-2.027,0.594-3.037,0.902c-0.171,1.102-0.95,2.103-2.028,2.424
			c-2.738,0.813-5.477,1.624-8.218,2.422c-1.078,0.313-2.27-0.11-3.011-0.94c-1.547,0.45-3.093,0.91-4.64,1.368
			c1.215,4.495,1.882,9.149,1.816,13.802c-0.004,0.755-0.083,1.503-0.051,2.255c3.19-0.793,6.346-1.757,9.353-3.093
			c2.333-1.047,4.589-2.327,6.496-4.051c1.635-1.488,2.957-3.359,3.621-5.489c0.987-3.08,0.586-6.415-0.268-9.486
			c0.145,0.702,0.311,1.438,0.524,2.245c-0.213-0.807-0.378-1.543-0.524-2.245c-0.01-0.034-0.018-0.07-0.028-0.104
			c0.002-0.001,0.004-0.001,0.006-0.002c-0.174-0.844-0.313-1.624-0.409-2.296C54.184,282.45,54.091,282.474,54.001,282.506z"/>
		<path fill="#808285" d="M70.107,292.27l-0.481-1.63c-0.65-1.814-1.491-3.591-2.745-5.069c-1.34-1.621-3.161-2.838-5.179-3.413
			c-2.427-0.698-5.046-0.529-7.427,0.261c0.096,0.672,0.236,1.452,0.409,2.296c1.592-0.465,3.272-0.707,4.929-0.501
			c1.936,0.208,3.793,1.13,5.102,2.591c1.83,2.008,2.744,4.665,3.287,7.287c0.097,0.456,0.16,0.916,0.201,1.378l2.173-1.957
			C70.295,293.098,70.204,292.683,70.107,292.27z"/>
		<path fill="#27AAE1" stroke="#FFFFFF" stroke-width="1.5273" stroke-miterlimit="10" d="M48.477,274.068
			c-2.706-1.976-6.152-2.518-9.418-2.422c-4.528,0.151-8.962,1.243-13.293,2.506c3.252,4.357,5.664,9.317,7.312,14.494
			c1.556-0.445,3.111-0.907,4.659-1.383c0.141-1.104,0.949-2.082,2.01-2.408c2.691-0.801,5.384-1.591,8.076-2.383
			c1.099-0.365,2.381,0.007,3.129,0.895c1.025-0.25,2.023-0.6,3.04-0.882C52.929,279.276,51.27,276.082,48.477,274.068z"/>
		<path fill="#27AAE1" stroke="#FFFFFF" stroke-width="1.5273" stroke-miterlimit="10" d="M33.853,296.581
			c-0.814-5.128-2.395-10.134-4.715-14.778c-1.295-2.57-2.818-5.03-4.609-7.283c-3.002,0.922-5.997,1.872-8.926,3.005
			c-2.855,1.105-5.664,2.376-8.235,4.048c-1.816,1.213-3.532,2.635-4.828,4.411c-1.321,1.784-2.185,3.916-2.431,6.132
			c-0.308,2.477,0.069,4.986,0.706,7.387l0.262,0.889c0.979,3.096,2.733,6.109,5.546,7.848c3.257,2.052,7.252,2.306,10.982,2.07
			c5.645-0.412,11.152-1.811,16.633-3.141C34.572,303.644,34.388,300.08,33.853,296.581z"/>
	</g>
</g>
</svg>
